<svg id="visual" viewBox="0 0 900 675" width="900" height="675" xmlns="http://www.w3.org/2000/svg" xmlns:xlink="http://www.w3.org/1999/xlink" version="1.1"><rect x="0" y="0" width="900" height="675" fill="#002233"></rect><path d="M0 496L21.5 502.8C43 509.7 86 523.3 128.8 524.3C171.7 525.3 214.3 513.7 257.2 503.5C300 493.3 343 484.7 385.8 479C428.7 473.3 471.3 470.7 514.2 478.3C557 486 600 504 642.8 502.5C685.7 501 728.3 480 771.2 482.2C814 484.3 857 509.7 878.5 522.3L900 535L900 676L878.5 676C857 676 814 676 771.2 676C728.3 676 685.7 676 642.8 676C600 676 557 676 514.2 676C471.3 676 428.7 676 385.8 676C343 676 300 676 257.2 676C214.3 676 171.7 676 128.8 676C86 676 43 676 21.5 676L0 676Z" fill="#0066FF" stroke-linecap="round" stroke-linejoin="miter"></path></svg>